# xmcd
#
# Track frame offsets:
# 150
# 27582
# 46772
# 68421
# 93294
# 115309
# 134346
# 159018
# 177464
# 196792
# 214228
# 238361
# 253986
# 271917
# 289668
# 314161
# 336880
#
# Disc length: 4791 seconds
#
#
# Revision: 0
# Processed by: cddbd v1.5.1PL0 Copyright (c) Steve Scherf et al.
# Submitted via: FreeRIP 2.91 
#
DISCID=fe12b511
DTITLE=Various Artist - 4 THE LADIES
DYEAR=2002
DGENRE=R&B
TTITLE0=YOU DONT KNOW MY NAME
TTITLE1=SUNSHINE
TTITLE2=SEXUAL NEEDS
TTITLE3=WOULD YOU MIND
TTITLE4=Y U GOT TO ACT LIKE THAT
TTITLE5=MADE 2 LOVE U
TTITLE6=ALL THAT I CAN SAY
TTITLE7=HUMAN NATURE
TTITLE8=GIRLZ DEM SUGAH
TTITLE9=ITS BETTER THAT IT HURTS
TTITLE10=LETS CHILL
TTITLE11=GUESS WHAT
TTITLE12=NEVER BEEN TOUCHED
TTITLE13=FLEX
TTITLE14=NO MORE DRAMAH
TTITLE15=IM FUCKING U 2NITE - RMX
TTITLE16=SHOWDOWN
EXTD=
EXTT0=
EXTT1=
EXTT2=
EXTT3=
EXTT4=
EXTT5=
EXTT6=
EXTT7=
EXTT8=
EXTT9=
EXTT10=
EXTT11=
EXTT12=
EXTT13=
EXTT14=
EXTT15=
EXTT16=
PLAYORDER=
